{"accessors":[{"bufferView":0,"byteOffset":0,"componentType":5126,"count":4,"max":[0.49,0.01,0.0],"min":[0.0,0.0,0.0],"type":"VEC3"},{"bufferView":0,"byteOffset":48,"componentType":5126,"count":4,"max":[0.49,0.01,0.0],"min":[0.49,0.0,-0.41781744400000004],"type":"VEC3"},{"bufferView":0,"byteOffset":96,"componentType":5126,"count":4,"max":[0.49,0.01,-0.41781744400000004],"min":[0.0,0.0,-0.41781744400000004],"type":"VEC3"},{"bufferView":0,"byteOffset":144,"componentType":5126,"count":4,"max":[0.0,0.01,0.0],"min":[0.0,0.0,-0.41781744400000004],"type":"VEC3"},{"bufferView":0,"byteOffset":192,"componentType":5126,"count":4,"max":[0.457173859,0.01,-0.03],"min":[0.03494210800000002,0.0,-0.03],"type":"VEC3"},{"bufferView":0,"byteOffset":240,"componentType":5126,"count":4,"max":[0.457173859,0.01,-0.03],"min":[0.457173859,0.0,-0.39],"type":"VEC3"},{"bufferView":0,"byteOffset":288,"componentType":5126,"count":4,"max":[0.457173859,0.01,-0.39],"min":[0.03494210800000002,0.0,-0.39],"type":"VEC3"},{"bufferView":0,"byteOffset":336,"componentType":5126,"count":4,"max":[0.03494210800000002,0.01,-0.03],"min":[0.03494210800000002,0.0,-0.39],"type":"VEC3"},{"bufferView":0,"byteOffset":384,"componentType":5126,"count":8,"max":[0.49,0.0,0.0],"min":[0.0,0.0,-0.41781744400000004],"type":"VEC3"},{"bufferView":0,"byteOffset":480,"componentType":5126,"count":8,"max":[0.49,0.01,0.0],"min":[0.0,0.01,-0.41781744400000004],"type":"VEC3"},{"bufferView":1,"byteOffset":0,"componentType":5126,"count":4,"type":"VEC3"},{"bufferView":1,"byteOffset":48,"componentType":5126,"count":4,"type":"VEC3"},{"bufferView":1,"byteOffset":96,"componentType":5126,"count":4,"type":"VEC3"},{"bufferView":1,"byteOffset":144,"componentType":5126,"count":4,"type":"VEC3"},{"bufferView":1,"byteOffset":192,"componentType":5126,"count":4,"type":"VEC3"},{"bufferView":1,"byteOffset":240,"componentType":5126,"count":4,"type":"VEC3"},{"bufferView":1,"byteOffset":288,"componentType":5126,"count":4,"type":"VEC3"},{"bufferView":1,"byteOffset":336,"componentType":5126,"count":4,"type":"VEC3"},{"bufferView":1,"byteOffset":384,"componentType":5126,"count":8,"type":"VEC3"},{"bufferView":1,"byteOffset":480,"componentType":5126,"count":8,"type":"VEC3"},{"bufferView":2,"byteOffset":0,"componentType":5123,"count":6,"type":"SCALAR"},{"bufferView":2,"byteOffset":12,"componentType":5123,"count":6,"type":"SCALAR"},{"bufferView":2,"byteOffset":24,"componentType":5123,"count":6,"type":"SCALAR"},{"bufferView":2,"byteOffset":36,"componentType":5123,"count":6,"type":"SCALAR"},{"bufferView":2,"byteOffset":48,"componentType":5123,"count":6,"type":"SCALAR"},{"bufferView":2,"byteOffset":60,"componentType":5123,"count":6,"type":"SCALAR"},{"bufferView":2,"byteOffset":72,"componentType":5123,"count":6,"type":"SCALAR"},{"bufferView":2,"byteOffset":84,"componentType":5123,"count":6,"type":"SCALAR"},{"bufferView":2,"byteOffset":96,"componentType":5123,"count":24,"type":"SCALAR"},{"bufferView":2,"byteOffset":144,"componentType":5123,"count":24,"type":"SCALAR"}],"asset":{"generator":"Open CASCADE Technology 7.8 [dev.opencascade.org]","version":"2.0"},"bufferViews":[{"buffer":0,"byteLength":576,"byteOffset":0,"byteStride":12,"target":34962},{"buffer":0,"byteLength":576,"byteOffset":576,"byteStride":12,"target":34962},{"buffer":0,"byteLength":192,"byteOffset":1152,"target":34963}],"buffers":[{"byteLength":1344,"uri":"box body.bin"}],"materials":[{"name":"mat_0","pbrMetallicRoughness":{"baseColorFactor":[0.16826939582824707,0.19120168685913086,0.2158605307340622,1.0]},"doubleSided":true}],"meshes":[{"name":"Body","primitives":[{"attributes":{"NORMAL":10,"POSITION":0},"indices":20,"material":0,"mode":4},{"attributes":{"NORMAL":11,"POSITION":1},"indices":21,"material":0,"mode":4},{"attributes":{"NORMAL":12,"POSITION":2},"indices":22,"material":0,"mode":4},{"attributes":{"NORMAL":13,"POSITION":3},"indices":23,"material":0,"mode":4},{"attributes":{"NORMAL":14,"POSITION":4},"indices":24,"material":0,"mode":4},{"attributes":{"NORMAL":15,"POSITION":5},"indices":25,"material":0,"mode":4},{"attributes":{"NORMAL":16,"POSITION":6},"indices":26,"material":0,"mode":4},{"attributes":{"NORMAL":17,"POSITION":7},"indices":27,"material":0,"mode":4},{"attributes":{"NORMAL":18,"POSITION":8},"indices":28,"material":0,"mode":4},{"attributes":{"NORMAL":19,"POSITION":9},"indices":29,"material":0,"mode":4}]}],"nodes":[{"mesh":0,"name":"Body"}],"scene":0,"scenes":[{"nodes":[0]}]}
