{"accessors":[{"bufferView":0,"byteOffset":0,"componentType":5126,"count":76,"max":[0.14,0.062,0.1398738552686554],"min":[-0.13949564839595371,0.0,-0.1398738552686554],"type":"VEC3"},{"bufferView":0,"byteOffset":912,"componentType":5126,"count":37,"max":[0.14,0.0,0.1398738552686554],"min":[-0.13949564839595371,0.0,-0.1398738552686554],"type":"VEC3"},{"bufferView":0,"byteOffset":1356,"componentType":5126,"count":37,"max":[0.14,0.062,0.1398738552686554],"min":[-0.13949564839595371,0.062,-0.1398738552686554],"type":"VEC3"},{"bufferView":1,"byteOffset":0,"componentType":5126,"count":76,"type":"VEC3"},{"bufferView":1,"byteOffset":912,"componentType":5126,"count":37,"type":"VEC3"},{"bufferView":1,"byteOffset":1356,"componentType":5126,"count":37,"type":"VEC3"},{"bufferView":2,"byteOffset":0,"componentType":5123,"count":222,"type":"SCALAR"},{"bufferView":2,"byteOffset":444,"componentType":5123,"count":105,"type":"SCALAR"},{"bufferView":2,"byteOffset":656,"componentType":5123,"count":105,"type":"SCALAR"}],"asset":{"generator":"Open CASCADE Technology 7.8 [dev.opencascade.org]","version":"2.0"},"bufferViews":[{"buffer":0,"byteLength":1800,"byteOffset":0,"byteStride":12,"target":34962},{"buffer":0,"byteLength":1800,"byteOffset":1800,"byteStride":12,"target":34962},{"buffer":0,"byteLength":868,"byteOffset":3600,"target":34963}],"buffers":[{"byteLength":4468,"uri":"spot.bin"}],"materials":[{"name":"mat_0","pbrMetallicRoughness":{"baseColorFactor":[0.16826939582824707,0.19120168685913086,0.2158605307340622,1.0]},"doubleSided":true}],"meshes":[{"name":"Body","primitives":[{"attributes":{"NORMAL":3,"POSITION":0},"indices":6,"material":0,"mode":4},{"attributes":{"NORMAL":4,"POSITION":1},"indices":7,"material":0,"mode":4},{"attributes":{"NORMAL":5,"POSITION":2},"indices":8,"material":0,"mode":4}]}],"nodes":[{"mesh":0,"name":"Body"}],"scene":0,"scenes":[{"nodes":[0]}]}